<?xml version="1.0" standalone="no"?>
<!DOCTYPE svg PUBLIC "-//W3C//DTD SVG 20010904//EN"
 "http://www.w3.org/TR/2001/REC-SVG-20010904/DTD/svg10.dtd">
<svg version="1.0" xmlns="http://www.w3.org/2000/svg"
 width="784.000000pt" height="784.000000pt" viewBox="0 0 784.000000 784.000000"
 preserveAspectRatio="xMidYMid meet">
<metadata>
Created by potrace 1.14, written by Peter Selinger 2001-2017
</metadata>
<g transform="translate(0.000000,784.000000) scale(0.100000,-0.100000)"
fill="#000000" stroke="none">
<path d="M2760 6415 c-311 -39 -624 -143 -855 -285 -280 -172 -493 -420 -588
-687 -108 -299 -58 -675 124 -940 184 -266 549 -487 931 -561 48 -9 88 -20 88
-25 0 -4 -24 -56 -54 -115 -257 -512 -343 -1065 -226 -1445 209 -677 1017
-1002 1916 -772 607 155 1162 610 1313 1074 35 106 44 185 38 320 -5 136 -19
194 -70 301 -43 89 -167 213 -262 262 -241 125 -596 142 -891 43 -472 -158
-869 -631 -978 -1165 -20 -98 -36 -231 -36 -296 l0 -52 75 -7 c42 -4 77 -6 78
-4 2 2 13 59 25 126 107 597 521 1071 1003 1150 90 15 108 15 191 1 241 -39
377 -182 408 -428 49 -375 -261 -804 -743 -1030 -377 -176 -808 -206 -1095
-74 -160 73 -273 182 -343 329 -58 120 -71 181 -76 345 -13 408 132 869 407
1289 l77 118 179 6 c1151 41 2402 597 2932 1303 273 363 306 740 84 946 -339
313 -1161 177 -2017 -334 -418 -250 -752 -513 -1125 -887 -265 -266 -461 -497
-605 -714 l-39 -59 -45 7 c-180 25 -359 79 -493 146 -334 168 -512 425 -534
772 -35 550 433 979 1221 1118 86 15 180 23 331 26 387 10 622 -32 902 -163
56 -26 104 -45 105 -43 65 96 77 122 67 135 -7 7 -75 45 -152 84 -296 148
-551 201 -953 199 -115 -1 -257 -7 -315 -14z m3316 -391 c76 -20 131 -65 161
-131 23 -51 25 -64 21 -157 -4 -80 -12 -118 -37 -186 -216 -582 -1224 -1207
-2241 -1389 -245 -44 -620 -77 -620 -55 0 14 200 278 310 409 286 343 636 689
935 926 577 456 1132 676 1471 583z"/>
</g>
</svg>
