<?xml version="1.0" standalone="no"?>
<!DOCTYPE svg PUBLIC "-//W3C//DTD SVG 20010904//EN"
 "http://www.w3.org/TR/2001/REC-SVG-20010904/DTD/svg10.dtd">
<svg version="1.0" xmlns="http://www.w3.org/2000/svg"
 width="640.000000pt" height="640.000000pt" viewBox="0 0 640.000000 640.000000"
 preserveAspectRatio="xMidYMid meet">
<metadata>
Created by potrace 1.14, written by Peter Selinger 2001-2017
</metadata>
<g transform="translate(0.000000,640.000000) scale(0.100000,-0.100000)"
fill="#000000" stroke="none">
<path d="M1920 6343 c-47 -13 -89 -25 -95 -26 -33 -10 -153 -71 -202 -103
-151 -99 -310 -319 -348 -479 -3 -11 -11 -47 -19 -80 -18 -72 -30 -194 -29
-292 l1 -73 -37 48 c-50 63 -122 128 -201 183 -68 48 -197 109 -229 109 -28 0
-71 -39 -71 -64 0 -27 35 -76 54 -76 23 0 140 -63 197 -106 168 -128 286 -313
378 -597 7 -21 11 -40 9 -42 -1 -1 -30 -10 -63 -19 -125 -36 -197 -105 -278
-268 -188 -380 -209 -425 -326 -693 -57 -129 -180 -467 -196 -538 -2 -12 -18
-76 -35 -142 -17 -66 -37 -163 -46 -215 -8 -52 -17 -108 -20 -125 -15 -85 -28
-285 -27 -440 0 -291 32 -543 108 -860 34 -140 67 -232 133 -365 238 -483 661
-841 1163 -985 31 -8 67 -18 80 -20 108 -21 143 -27 204 -32 184 -16 380 -1
535 42 30 8 62 17 70 19 67 18 282 113 288 128 2 4 8 8 13 8 22 0 209 133 271
193 20 19 17 21 71 -23 10 -8 28 -23 40 -33 44 -38 185 -126 266 -166 100 -51
214 -94 319 -120 76 -20 99 -24 212 -38 125 -15 370 -3 448 21 10 3 31 8 47
10 92 14 269 78 395 143 97 51 288 176 340 223 85 78 186 179 229 230 25 30
54 64 64 75 10 10 34 44 55 75 20 30 40 56 45 58 4 2 7 9 7 15 0 6 6 18 14 26
19 21 126 231 154 301 47 118 94 283 107 380 4 24 8 47 10 50 1 3 6 39 10 80
4 41 8 77 10 80 7 12 18 255 18 385 0 134 -8 301 -18 375 -2 19 -7 55 -10 80
-11 85 -27 175 -42 235 -8 33 -17 71 -19 85 -16 86 -110 378 -155 479 -16 35
-29 67 -29 72 0 24 -182 392 -292 589 -198 354 -303 527 -347 569 -75 70 -149
100 -316 125 -22 4 -69 11 -105 17 -64 10 -150 13 -180 6 -65 -16 -134 -53
-201 -108 -35 -29 -66 -55 -69 -58 -3 -4 -36 -33 -75 -66 -38 -33 -72 -62 -75
-65 -3 -3 -39 -34 -80 -70 -41 -36 -84 -74 -96 -85 -11 -11 -62 -58 -112 -103
-251 -229 -462 -460 -620 -680 l-44 -60 -81 101 c-108 134 -350 378 -513 517
-230 195 -750 587 -809 610 -78 30 -152 38 -229 23 -38 -7 -72 -10 -75 -7 -3
3 -15 35 -27 71 l-21 65 24 9 c13 5 29 9 34 9 20 0 169 63 169 71 0 5 4 8 9 6
5 -1 43 20 85 48 201 130 338 359 382 640 13 84 10 307 -6 415 -10 64 -20 126
-24 137 -4 12 -9 31 -11 44 -6 29 -31 56 -58 61 -12 2 -60 -6 -107 -19z"/>
</g>
</svg>
